<?xml version="1.0" encoding="UTF-8"?>
<svg width="1489px" height="240px" viewBox="0 0 1489 240" version="1.1" xmlns="http://www.w3.org/2000/svg" xmlns:xlink="http://www.w3.org/1999/xlink">
    <!-- Generator: Sketch 46 (44423) - http://www.bohemiancoding.com/sketch -->
    <title>Group 9</title>
    <desc>Created with Sketch.</desc>
    <defs>
        <rect id="path-1" x="1251" y="3" width="240" height="240" rx="8"></rect>
    </defs>
    <g id="Page-1" stroke="none" stroke-width="1" fill="none" fill-rule="evenodd">
        <g id="Group-9" transform="translate(-2.000000, -3.000000)">
            <g id="Group-7" font-size="180" font-family="AvenirNext-Bold, Avenir Next" fill="#FFFFFF" font-weight="bold">
                <text id="SHOES-STORE">
                    <tspan x="0" y="180">SHOES STORE</tspan>
                </text>
            </g>
            <g id="Rectangle-6">
                <use fill-opacity="0" fill="#FFFFFF" fill-rule="evenodd" xlink:href="#path-1"></use>
                <rect stroke="#FFFFFF" stroke-width="8" x="1255" y="7" width="232" height="232" rx="8"></rect>
            </g>
            <g id="esporte" transform="translate(1371.485701, 116.288220) rotate(16.000000) translate(-1371.485701, -116.288220) translate(1262.985701, 35.788220)" fill-rule="nonzero" fill="#FFFFFF">
                <path d="M194.831558,95.669391 L162.523794,93.3612225 L141.17117,57.7916641 L130.496508,39.9813119 L130.496508,35.0481993 C130.499807,29.6943696 126.162298,25.3519104 120.808468,25.3486105 C119.609012,25.3469607 118.419456,25.5696929 117.302493,26.0019592 L86.6017027,37.8447295 L88.9214208,30.0589909 C90.7527773,23.5139545 87.7813602,16.5762491 81.7807813,13.3853993 L57.6910221,0.443815061 C55.9388594,-0.496610917 53.7560811,0.103941948 52.7315112,1.80825808 L17.3962346,58.392217 L16.6504932,57.9599507 C14.8653331,56.9337314 12.586862,57.5507828 11.5622925,59.3359429 C11.5391941,59.37389 11.5193961,59.4118367 11.4979475,59.4514336 L0.435565814,80.2777491 C-0.518059128,82.0761082 0.14683837,84.3050829 1.92704875,85.290056 L136.465739,159.859253 C137.018446,160.164479 137.638797,160.324517 138.270698,160.324517 L193.881233,160.324517 C206.230514,160.312968 216.240278,150.304853 216.251827,137.953923 L216.251827,118.670236 C216.21223,106.586584 206.882212,96.5685707 194.831558,95.669391 Z M154.731456,94.8708541 L150.47314,96.2913925 L117.111109,52.9146469 L125.687135,46.4752022 L154.731456,94.8708541 Z M57.2950532,8.69481778 L78.2533583,19.9436347 C81.1587802,21.4796642 82.6106662,24.8223017 81.7510838,27.993353 L78.6707755,38.3743382 L57.2686553,25.5399954 L49.8574369,21.0919446 L57.2950532,8.69481778 Z M35.2197858,44.2792249 L37.1286859,41.296259 L49.3954732,50.4200427 C55.6385832,55.1073247 58.826133,62.8270689 57.7091704,70.5550624 L57.2439071,81.3303667 L23.9214726,62.1242243 L35.2197858,44.2792249 Z M193.881233,152.868752 L139.229272,152.868752 L8.73276449,80.5351289 L16.2677232,66.3676908 L139.818276,137.457311 C140.385831,137.783986 141.027631,137.955572 141.68263,137.953923 L208.794412,137.953923 C208.794412,146.190076 202.117386,152.868752 193.881233,152.868752 L193.881233,152.868752 Z M208.794412,130.496508 L142.677502,130.496508 L117.104509,115.773063 L125.701984,107.007301 C127.122522,105.517468 127.066427,103.156504 125.574944,101.735965 C124.114809,100.343474 121.811589,100.366572 120.377852,101.787111 L110.430783,111.928865 L96.2616946,103.763656 L110.47203,92.3960479 C112.079003,91.1091493 112.339683,88.7613835 111.052784,87.1527596 C109.765885,85.5457856 107.418119,85.2851062 105.811145,86.5720052 L89.3190395,99.7676698 L77.1792925,92.7870675 L95.5984469,77.4366723 C97.1823226,76.1184257 97.3968055,73.7673603 96.0802091,72.1834846 C94.7619624,70.599609 92.4092469,70.3851256 90.8253712,71.7017225 L70.2894333,88.8191286 L64.5247855,85.5012394 L65.1286384,71.1886126 C66.5095799,60.8769217 62.1885689,50.6279266 53.8435241,44.4178136 L41.1395212,34.972305 L45.9389944,27.4373467 L78.943004,47.2390923 C79.3868191,47.4948224 79.8784807,47.65321 80.3866408,47.7060058 C80.4757336,47.7060058 80.5532776,47.7357033 80.6440206,47.7423027 C80.7331134,47.7505524 80.7892092,47.7687007 80.8601533,47.7687007 C81.3204673,47.7703504 81.7791315,47.6862074 82.2097476,47.5195701 L119.978583,32.9528635 C120.669879,32.6888842 121.443668,32.7796272 122.05577,33.1953946 C122.669522,33.6161117 123.034143,34.314007 123.029194,35.0597481 L123.029194,39.1613263 L109.605847,49.2271862 C107.959277,50.4645893 107.627652,52.8024557 108.865056,54.4473765 C108.873305,54.4589257 108.881554,54.4704749 108.889804,54.4803739 L146.175227,102.95192 C147.138752,104.21407 148.800171,104.722231 150.306503,104.215721 L160.786481,100.721295 L194.29205,103.115257 C202.445711,103.719109 208.763065,110.493478 208.794412,118.670236 L208.794412,130.496508 Z" id="Shape"></path>
            </g>
        </g>
    </g>
</svg>